<svg version="1.1"
	 xmlns="http://www.w3.org/2000/svg" xmlns:xlink="http://www.w3.org/1999/xlink" xmlns:a="http://ns.adobe.com/AdobeSVGViewerExtensions/3.0/"
	 x="0px" y="0px" viewBox="0 0 199.9 49.6" style="enable-background:new 0 0 199.9 49.6;"
	 xml:space="preserve">
<g>
	<g>
		<g>
			<path d="M4.8,22c0-0.6,0.1-1,0.3-1.4c0.2-0.4,0.5-0.8,0.8-1.1c0.3-0.3,0.7-0.6,1.1-0.9c0.4-0.3,0.9-0.6,1.3-0.8
				c0.9-0.6,1.8-1.1,2.6-1.5c0.8-0.4,1.8-0.6,2.9-0.6c0.7,0,1.4,0,1.9,0c0.6,0,1.1,0.3,1.7,0.7c0.5,0.4,0.8,0.8,1,1.3
				c0.2,0.5,0.3,1,0.3,1.7c0,0.3-0.1,0.7-0.2,1.1c-0.1,0.4-0.3,0.7-0.5,1c-0.2,0.3-0.5,0.6-0.8,0.8c-0.3,0.2-0.7,0.3-1.1,0.3
				c-0.4,0-0.7-0.1-0.9-0.3c-0.2-0.2-0.4-0.4-0.6-0.6c-0.2-0.2-0.4-0.4-0.6-0.6c-0.2-0.2-0.5-0.3-0.9-0.3c-0.5,0-0.9,0-1.4,0.1
				c-0.5,0.1-0.9,0.2-1.3,0.4c-0.4,0.2-0.7,0.5-0.9,0.8c-0.2,0.3-0.4,0.7-0.4,1.2c0,0.4,0.1,0.7,0.4,0.9c0.3,0.2,0.6,0.3,1,0.4
				c0.4,0.1,0.8,0.1,1.3,0.2c0.5,0.1,0.9,0.2,1.3,0.4c0.9,0.5,1.8,0.9,2.4,1.3c0.7,0.4,1.5,0.9,2.3,1.5c0.3,0.2,0.6,0.3,0.8,0.4
				c0.2,0.1,0.5,0.2,0.7,0.3c0.2,0.1,0.5,0.2,0.7,0.4c0.2,0.1,0.5,0.3,0.8,0.6c1,0.8,1.8,1.6,2.4,2.4c0.6,0.8,0.9,1.9,0.9,3.2v1.2
				c0,0.4,0.1,0.8,0.2,1.1c0.1,0.3,0.2,0.7,0.2,1.2c0,0.7-0.1,1.3-0.4,1.8c-0.3,0.5-0.6,1-0.9,1.6c-0.1,0.3-0.1,0.5,0,0.7
				c0.1,0.2,0,0.4-0.2,0.6c-0.1,0.5-0.4,0.8-0.7,0.9c-0.3,0.1-0.6,0.4-0.9,0.7c-0.3,0.3-0.6,0.5-0.9,0.7c-0.3,0.2-0.6,0.4-0.8,0.6
				c-0.3,0.2-0.6,0.4-0.9,0.5c-0.3,0.2-0.7,0.4-1.1,0.6c-0.7,0.4-1.3,0.7-1.8,0.8c-0.5,0.2-1.1,0.3-1.8,0.5
				c-0.2,0.1-0.5,0.2-0.6,0.3c-0.2,0.2-0.4,0.2-0.7,0.2c-0.3,0-0.6,0-0.7-0.1c-0.2-0.1-0.4-0.1-0.6-0.1c-0.5,0-0.9,0.1-1.2,0.2
				c-0.3,0.1-0.7,0.2-1.1,0.2c-0.3,0-0.5-0.1-0.7-0.2c-0.2-0.1-0.4-0.2-0.7-0.3c-0.4-0.1-0.7-0.2-1-0.2c-0.3,0-0.6,0-1-0.1
				c-0.4,0-0.7-0.1-0.9-0.3c-0.2-0.2-0.6-0.5-0.9-0.7c-0.4-0.2-0.8-0.4-1.1-0.4C2.8,47.3,2.4,47,2,46.7c-0.4-0.2-0.6-0.5-0.6-0.8
				c0-0.3-0.2-0.7-0.4-1.1c-0.3-0.6-0.5-1.1-0.7-1.4C0.1,43.1,0,42.6,0,41.9c0-1,0.4-1.9,1.2-2.6c0.8-0.7,1.7-1.1,2.8-1.1
				c0.7,0,1.3,0.1,1.9,0.4c0.6,0.3,0.9,0.7,0.9,1.3c0,0.2,0,0.4-0.1,0.5c-0.1,0.1-0.1,0.2-0.1,0.4c0,0.2,0.1,0.4,0.2,0.6
				c0.1,0.1,0.2,0.3,0.2,0.5c0,0.1,0,0.2-0.1,0.3c-0.1,0.1-0.1,0.2-0.1,0.3c0,0.5,0.1,1,0.4,1.3c0.3,0.4,0.6,0.7,1.1,0.9
				c0.4,0.3,0.9,0.5,1.5,0.6c0.6,0.1,1.1,0.2,1.7,0.2c1.1,0,2.1-0.3,3.1-0.8c0.9-0.5,1.8-1.2,2.5-2.1c0.4-0.5,0.8-0.9,1-1.4
				c0.3-0.5,0.4-1.1,0.4-1.8c0-0.4-0.1-0.8-0.3-1.2c-0.2-0.4-0.3-0.7-0.3-1.1c0-0.2,0-0.3,0.1-0.3c0.1,0,0.1-0.1,0.1-0.1
				c0-0.6-0.1-1-0.4-1.4c-0.3-0.4-0.7-0.7-1.1-1c-0.5-0.3-1-0.5-1.5-0.8c-0.5-0.2-1.1-0.5-1.6-0.8c-0.1-0.1-0.3-0.2-0.3-0.4
				c-0.1-0.2-0.2-0.3-0.4-0.4c-0.3-0.2-0.7-0.3-1-0.3c-0.3,0-0.7-0.2-1-0.4c-0.3-0.2-0.5-0.4-0.6-0.5c-0.1-0.2-0.3-0.4-0.6-0.6
				c-0.4-0.2-0.7-0.3-1-0.3c-0.3,0-0.6-0.2-1-0.4c-0.2-0.2-0.4-0.5-0.5-0.6c-0.2-0.2-0.3-0.4-0.4-0.7c-0.3-0.3-0.6-0.6-1-0.8
				c-0.4-0.2-0.6-0.6-0.6-1.1v-1.3c0-0.2,0-0.4-0.1-0.6c0-0.2-0.1-0.4-0.1-0.7c0-0.1,0-0.3,0.1-0.3c0-0.1,0.1-0.2,0.1-0.3
				c0-0.2,0-0.3,0.1-0.4C4.8,22.1,4.8,22,4.8,22z"/>
		</g>
		<g>
			<path d="M34.8,27.9c0,0.3,0.1,0.6,0.1,0.8c0,0.2,0.1,0.4,0.1,0.5c0,0.2,0.1,0.4,0.1,0.6c0,0.2,0.1,0.6,0.1,1c0,0.7,0,1.2,0.1,1.6
				c0.1,0.4,0.2,0.9,0.5,1.3c0.1,0.3,0.1,0.6,0.1,0.9c0,0.3-0.1,0.6-0.1,0.8c0,0.2,0,0.4,0,0.6c0.1,0.1,0.2,0.2,0.4,0.2
				c0.5,0,0.9-0.1,1-0.3c0.2-0.2,0.4-0.5,0.6-0.7c0.4-0.5,0.8-1.1,1.3-1.7c0.5-0.7,0.8-1.2,1-1.7c0.1-0.5,0.2-0.9,0.2-1.2
				c0-0.3,0-0.6-0.1-0.8c0-0.2-0.1-0.5-0.1-0.7c0-0.2,0-0.5,0.1-0.8v-0.2c0-0.2,0-0.4,0-0.5c0-0.1-0.1-0.2-0.1-0.2
				c-0.1,0-0.1-0.1-0.2-0.1c-0.1,0-0.3-0.1-0.5-0.2h-0.7c-0.3,0-0.5-0.1-0.7-0.4c-0.1-0.1-0.2-0.2-0.2-0.4c-0.1-0.2,0-0.5,0.2-0.7
				c0.2-0.2,0.4-0.4,0.7-0.6c0.3-0.2,0.6-0.3,0.9-0.4c0.3-0.1,0.6-0.2,0.9-0.2c0.2-0.3,0.5-0.5,0.7-0.6c0.2-0.1,0.4-0.2,0.5-0.2
				c0.2-0.1,0.3-0.1,0.5-0.1c0.2,0,0.3-0.1,0.5-0.2c0.2-0.3,0.6-0.5,1-0.8c0.5-0.2,1-0.4,1.4-0.4c0.7,0.2,1,0.5,1,1
				c0,0.5-0.1,1.1-0.4,1.8v0.6c0,0.2,0,0.4,0.1,0.7c0,0.2,0.2,0.4,0.4,0.4c0.2,0,0.6-0.3,1.2-0.7c0.5-0.5,1.1-0.9,1.8-1.5
				c0.6-0.5,1.2-1,1.8-1.4c0.6-0.4,1.1-0.6,1.5-0.6c0.5,0,1,0.1,1.5,0.3c0.5,0.2,1,0.4,1.4,0.7c0.5,0.3,0.9,0.6,1.2,0.9
				c0.3,0.4,0.6,0.7,0.8,1.1c0.3,0.5,0.6,1.1,0.7,1.8c0.1,0.7,0.1,1.4-0.1,2l-1.8,5.2c-0.1,0.6-0.5,1.2-1,1.7
				c-0.5,0.5-1,1.1-1.3,1.7c-0.5,0.7-1,1.4-1.5,2.1c-0.6,0.7-1.2,1.4-1.8,2.1c-0.3,0.4-0.6,0.7-0.8,0.8c-0.2,0.2-0.4,0.3-0.6,0.5
				c-0.2,0.2-0.4,0.3-0.7,0.6c-0.2,0.2-0.5,0.6-0.9,1c-0.2,0.3-0.4,0.6-0.8,0.9c-0.4,0.3-0.8,0.7-1.2,1c-0.4,0.3-0.9,0.6-1.3,0.8
				c-0.5,0.2-0.9,0.3-1.2,0.3c-0.7,0-1.3-0.1-1.8-0.3c-0.5-0.2-0.7-0.6-0.6-1.1c0.1-0.5,0.2-0.9,0.2-1.2c0-0.3,0-0.5,0-0.7l0.3-0.9
				c-0.1-0.7-0.2-1.4-0.3-2c-0.1-0.6-0.1-1.2,0-2c0.2-0.8,0.2-1.5,0.1-2c-0.1-0.5-0.3-0.8-0.5-0.8c-0.6,0-1.2,0.4-1.7,1.1
				c-0.6,0.8-1.1,1.5-1.6,2.2c-0.3,0.5-0.4,0.8-0.4,1.1c0,0.3-0.2,0.6-0.5,1.1c-0.3,0.6-0.6,1.1-0.9,1.4c-0.3,0.3-0.5,0.8-0.5,1.2
				c-0.2,0.2-0.3,0.5-0.5,0.8c-0.2,0.3-0.3,0.6-0.5,0.8c-0.2,0.2-0.4,0.4-0.6,0.6c-0.2,0.2-0.5,0.2-0.9,0.2c-0.2,0-0.5,0-0.8-0.1
				c-0.3-0.1-0.6-0.2-0.8-0.3c-0.2-0.1-0.4-0.3-0.5-0.5c-0.1-0.2-0.2-0.4-0.2-0.7c0.2-0.8,0.4-1.4,0.5-2c0.1-0.6,0.1-1.3,0.1-2.4
				c0-0.7-0.1-1.3-0.2-1.9c-0.1-0.6-0.1-1.3,0-2l0.2-1.7c0-0.5-0.1-0.8-0.1-1c0-0.2,0-0.4-0.1-0.6c0-0.2,0-0.4-0.1-0.6
				c0-0.2,0-0.5-0.1-0.9c-0.1-0.2-0.1-0.4-0.1-0.5c0-0.2,0-0.3-0.1-0.3c0-0.1-0.1-0.2-0.1-0.3v-1.3v-0.2c0-0.5-0.2-0.8-0.5-1
				c-0.3-0.2-0.7-0.3-1.2-0.3c-0.2,0-0.4,0-0.5,0.1c-0.1,0.1-0.3,0.2-0.4,0.3c-0.1,0.1-0.3,0.2-0.5,0.3c-0.2,0.1-0.5,0.1-0.9,0.1
				c-0.2,0-0.5-0.1-0.6-0.3c-0.1-0.1-0.2-0.2-0.3-0.3c0-0.5,0.2-0.9,0.5-1.3c0.3-0.4,0.7-0.6,0.9-0.6c0.5-0.5,0.9-0.9,1.3-1.2
				c0.3-0.3,0.7-0.6,1.2-0.8c0.1-0.1,0.3-0.4,0.7-0.8c0.4-0.4,0.8-0.8,1.2-1.1c0.4-0.4,0.9-0.7,1.3-1c0.4-0.3,0.8-0.4,1-0.4
				c0.5,0,0.9,0.2,1.1,0.5c0.2,0.4,0.4,0.8,0.4,1.3c0.1,0.5,0.1,1,0.1,1.5c0,0.5,0,0.9,0,1.1V27.9z M45.7,30.6
				c-0.1,0.5-0.1,0.9-0.1,1.3c0,0.3,0.1,0.7,0.2,1c0.1,0.3,0.2,0.7,0.3,1.2c0.1,0.4,0.1,0.9,0.1,1.5c-0.1,0.3-0.1,0.7-0.1,1.1
				c0,0.5,0,0.9,0.1,1.4c0.1,0.5,0.2,0.9,0.4,1.2c0.2,0.3,0.4,0.5,0.6,0.5c0.4,0,0.9-0.2,1.4-0.5c0.5-0.3,1-0.8,1.4-1.3
				c0.5-0.5,0.8-1,1.2-1.5c0.3-0.5,0.5-1,0.7-1.4c0.1-0.7,0.2-1.4,0.3-1.9c0.1-0.5,0.1-1,0-1.4c-0.1-0.4-0.2-0.9-0.4-1.3
				c-0.2-0.4-0.5-0.9-0.8-1.5c-0.1-0.3-0.5-0.5-1-0.7c-0.5-0.2-1-0.3-1.5-0.3c-0.2,0-0.5,0.1-0.8,0.3c-0.3,0.2-0.6,0.4-0.9,0.7
				c-0.3,0.3-0.5,0.5-0.7,0.9C45.8,30,45.7,30.3,45.7,30.6z"/>
		</g>
		<g>
			<path d="M74.3,21.5c0.7,0,1.3,0.2,1.6,0.6c0.3,0.4,0.5,1,0.5,1.7c0,0.1-0.1,0.4-0.2,0.9c-0.1,0.5-0.2,1-0.4,1.6
				c-0.2,0.6-0.3,1.2-0.5,1.8c-0.2,0.6-0.3,1.1-0.4,1.4c0,0.3,0,0.6-0.1,0.9c0,0.3-0.2,0.7-0.4,1.2c-0.3,0.2-0.4,0.5-0.4,1
				c0,0.5,0,0.8,0,1l-0.2,2.8v2c0,0.1,0,0.3,0,0.5c0,0.3,0.1,0.5,0.1,0.8c0.1,0.3,0.1,0.5,0.3,0.7c0.1,0.2,0.3,0.3,0.6,0.3l0.7-1.2
				c0.2-0.2,0.5-0.4,0.7-0.7c0.3-0.3,0.6-0.5,0.8-0.8c0.3-0.3,0.6-0.6,0.9-0.9c0.2,0,0.4,0.1,0.5,0.3c0.1,0.2,0.2,0.4,0.2,0.6
				l-0.2,0.4c-0.1,0.3-0.3,0.5-0.4,0.6c-0.2,0.7-0.6,1.3-0.9,1.8c-0.4,0.5-0.8,1-1.3,1.5c-0.5,0.5-0.9,1-1.4,1.4
				c-0.5,0.5-0.9,1-1.3,1.7l-1.2,1.6c0,0.3-0.1,0.6-0.3,1c-0.2,0.3-0.4,0.6-0.7,0.8c-0.3,0.2-0.5,0.3-0.8,0.3
				c-0.3,0-0.5-0.2-0.7-0.6c-0.2-0.6-0.3-1.2-0.3-1.9c0-0.6,0.1-1.2,0.2-1.8c0.1-0.6,0.2-1.1,0.3-1.6c0.1-0.5,0.2-1,0.2-1.5v-1.9v-1
				c0-0.2-0.1-0.3-0.4-0.4c-0.1,0-0.3-0.1-0.4-0.1s-0.4,0.3-0.8,0.9c-0.4,0.6-0.9,1.3-1.4,2.1c-0.5,0.8-1.1,1.6-1.6,2.4
				c-0.6,0.8-1,1.4-1.4,1.7c-0.1,0.1-0.3,0.3-0.5,0.6c-0.2,0.3-0.5,0.5-0.7,0.8c-0.3,0.2-0.5,0.5-0.9,0.7c-0.3,0.2-0.6,0.3-0.8,0.3
				c-0.5,0-0.9-0.2-1.2-0.5c-0.3-0.3-0.6-0.8-0.7-1.2c-0.2-0.5-0.3-0.9-0.4-1.4c-0.1-0.5-0.1-0.8-0.1-1l-0.2-3.8l0.7-6.1
				c0-0.1,0.1-0.3,0.2-0.7c0.1-0.4,0.2-0.8,0.4-1.3c0.2-0.5,0.4-0.9,0.6-1.3c0.2-0.4,0.5-0.8,0.7-1.1c1-0.9,2-2.1,2.9-3.5
				c0.5-0.6,0.9-1.1,1.3-1.4c0.4-0.3,0.8-0.5,1.3-0.7c0.4-0.2,0.8-0.3,1.3-0.4c0.4-0.1,0.9-0.3,1.4-0.5c0.2,0,0.5-0.1,0.8-0.3
				c0.3-0.2,0.6-0.4,0.9-0.7h1.5h0.9L74.3,21.5z M67.6,27.3c-0.6,0.5-1.2,1.1-1.8,1.8c-0.6,0.7-1,1.4-1.5,2.1c-0.4,0.7-0.8,1.4-1,2
				c-0.2,0.6-0.4,1.1-0.4,1.4c0,0.2,0,0.5-0.1,1c0,0.5,0,1,0.1,1.5c0.1,0.5,0.2,1,0.4,1.4c0.2,0.4,0.5,0.6,1,0.6
				c0.5,0,1-0.4,1.6-1.2c0.6-0.8,1.2-1.7,1.7-2.7c0.5-1,1-2,1.4-2.8c0.4-0.9,0.5-1.4,0.5-1.6c0-0.1,0-0.5,0.1-1c0-0.5,0-1.1-0.1-1.6
				c-0.1-0.5-0.3-0.9-0.6-1.1C68.7,26.7,68.3,26.9,67.6,27.3z"/>
		</g>
		<g>
			<path d="M86.5,22.5c0.4,0,0.7,0.1,0.9,0.4c0.2,0.2,0.4,0.5,0.6,0.8c0.1,0.2,0.1,0.6,0.1,1c0,0.4-0.1,0.8-0.2,1.3
				c-0.1,0.4-0.2,0.8-0.3,1.2c-0.1,0.4-0.1,0.6-0.1,0.8l0.2,0.8l0.6,1c0.1,0,0.4-0.2,0.8-0.6c0.4-0.4,0.9-0.9,1.4-1.5
				c0.5-0.6,1.1-1.2,1.7-1.9c0.6-0.7,1.2-1.3,1.7-1.9c0.6-0.6,1.1-1.1,1.5-1.5c0.5-0.4,0.8-0.6,1-0.6c0.3,0,0.5,0.2,0.7,0.5
				c0.2,0.3,0.4,0.7,0.5,1.1c0.2,0.5,0.3,1,0.5,1.6c0,0.5,0,1.2-0.1,2c-0.1,0.9-0.3,1.8-0.5,2.9c-0.2,1-0.5,2.1-0.7,3.1
				c-0.3,1.1-0.5,2-0.7,2.9c-0.2,0.9-0.4,1.6-0.6,2.2c-0.2,0.6-0.2,0.9-0.2,0.9c0,0.1,0,0.3-0.1,0.5c0,0.2-0.1,0.4-0.1,0.5
				c0,0.2,0,0.3,0.1,0.4c0.1,0.1,0.3,0.2,0.5,0.2c0.2-0.1,0.4-0.3,0.6-0.4c0.2-0.1,0.4-0.3,0.6-0.4c0.2-0.1,0.4-0.3,0.7-0.5
				c0.6-0.4,1.1-0.7,1.6-1.1c0.5-0.3,0.8-0.5,1-0.5c0.2,0,0.4,0.1,0.7,0.3c0.2,0.2,0.4,0.4,0.4,0.7c0,0.1-0.1,0.3-0.3,0.6
				c-0.2,0.3-0.5,0.6-0.8,1c-0.3,0.3-0.6,0.7-0.9,0.9c-0.3,0.3-0.5,0.4-0.7,0.4c0,0.3-0.1,0.5-0.3,0.8c-0.2,0.2-0.4,0.4-0.6,0.4
				c-0.6,0.6-1,1.2-1.4,1.7c-0.4,0.6-0.8,1.1-1.2,1.5c-0.4,0.5-0.8,0.8-1.3,1.1c-0.5,0.3-1,0.4-1.7,0.4c-0.2,0-0.5-0.1-0.8-0.3
				c-0.3-0.2-0.5-0.4-0.7-0.7c-0.2-0.3-0.4-0.5-0.5-0.8c-0.1-0.3-0.2-0.5-0.2-0.8l-0.2-1.9c0.2-0.9,0.5-2,0.8-3
				c0.3-1.1,0.6-2.1,0.9-3c0.3-0.8,0.5-1.6,0.7-2.3c0.2-0.7,0.3-1.4,0.4-2.1v-0.6c-0.1-1-0.5-1.5-1-1.5c-0.8,0-1.5,0.2-2,0.5
				c-0.5,0.4-0.9,0.8-1.2,1.4c-0.3,0.6-0.6,1.2-0.8,1.9c-0.2,0.7-0.5,1.3-0.8,1.9c-0.2,0.2-0.3,0.4-0.3,0.6c-0.1,0.2,0,0.4,0,0.7
				c-0.1,0.4-0.1,0.8-0.2,1.3c-0.1,0.4-0.2,0.8-0.3,1.2c-0.4,1.1-0.8,2.2-1.1,3.3c-0.3,1.1-0.7,2.1-0.9,3.1c0.2,0.3,0.1,0.4-0.1,0.5
				c-0.2,0.1-0.4,0.1-0.7,0.1s-0.5,0-0.9,0c-0.4,0-0.8-0.1-1.1-0.2c-0.4-0.1-0.7-0.3-1-0.5c-0.3-0.2-0.5-0.5-0.5-0.9
				c-0.1-0.6,0-1.2,0.2-1.9c0.2-0.6,0.4-1.2,0.7-1.8c0.3-0.6,0.5-1,0.8-1.5c0.2-0.4,0.4-0.7,0.4-0.8v-0.9v-1l-0.3-0.9
				c0-0.2,0.1-0.5,0.2-0.8c0.1-0.3,0.3-0.7,0.4-1c0.2-0.3,0.3-0.6,0.4-0.9c0.1-0.3,0.2-0.5,0.2-0.6v-0.7l-0.2-2c0-0.2,0-0.4-0.1-0.7
				c-0.1-0.2-0.2-0.3-0.5-0.3c-0.2,0-0.4,0.1-0.7,0.2c-0.3,0.1-0.5,0.2-0.8,0.3c-0.3,0.1-0.5,0.2-0.7,0.3c-0.2,0.1-0.4,0.2-0.5,0.2
				h-0.4c-0.2-0.1-0.3-0.4-0.2-0.8c0.1-0.4,0.2-0.7,0.2-0.9c0.9-1.2,1.7-2.3,2.5-3.2c0.8-0.9,1.8-1.8,3-2.5c0.2-0.1,0.6-0.3,1-0.5
				C85.7,22.7,86.1,22.5,86.5,22.5z"/>
		</g>
		<g>
			<path d="M130.2,18.2c0.5,0,0.9,0.1,1.4,0.4c0.4,0.3,0.7,0.7,0.7,1.2v1c-0.4,0.3-0.8,0.5-1.1,0.7c-0.3,0.2-0.6,0.3-0.8,0.5
				c-0.3,0.2-0.5,0.2-0.6,0.2h-1.6c-0.7,0-1.3,0.2-1.7,0.6c-0.4,0.4-0.6,1-0.6,1.7v1.6c0,0.9-0.1,2-0.3,3.1
				c-0.2,1.1-0.4,2.2-0.7,3.2v2.9v2.9v1.5v0.6c0,0.1,0,0.3,0.1,0.5c0.1,0.3,0.1,0.5,0.3,0.8c0.1,0.3,0.3,0.5,0.4,0.7
				c0.2,0.2,0.4,0.3,0.7,0.3h1.5h1.6h1.5c0.1,0,0.4-0.1,0.9-0.3c0.5-0.2,1-0.5,1.5-0.7c0.6-0.3,1.1-0.6,1.6-0.9
				c0.5-0.3,0.9-0.6,1.2-0.8c0.3-0.2,0.6-0.5,0.8-0.7c0.3-0.2,0.5-0.3,0.8-0.3c0.2-0.5,0.4-0.8,0.4-0.9c0.1-0.1,0.3-0.1,0.5-0.1
				c0.2,0,0.5,0.1,0.9,0.3c0.4,0.2,0.6,0.4,0.6,0.7c0,0.1-0.1,0.5-0.4,1.2c-0.3,0.7-0.7,1.5-1.1,2.4c-0.4,0.9-0.9,1.7-1.4,2.6
				c-0.5,0.8-0.9,1.4-1.4,1.6c-0.1,0.1-0.4,0.2-0.9,0.3c-0.5,0.1-1,0.1-1.6,0.1c-0.6,0-1.3,0.1-2.1,0.1h-1.5h-1
				c-0.7,0-1.5-0.1-2.2-0.2c-0.7-0.1-1.2-0.1-1.5,0.1l-0.7,0.2l-2.5,0.6c-0.1,0-0.3,0-0.7-0.1c-0.3-0.1-0.7-0.1-1.1-0.2
				c-0.4-0.1-0.7-0.2-1.1-0.2c-0.3-0.1-0.5-0.1-0.7-0.1c-0.3,0-0.5,0-0.8,0.1c-0.2,0.1-0.5,0.1-0.6,0.2c-0.2,0.1-0.4,0.2-0.6,0.3
				c-0.4,0-0.7-0.1-0.9-0.3c-0.2-0.2-0.3-0.4-0.4-0.6c-0.1-0.2-0.1-0.5-0.2-0.7c0-0.2,0-0.4,0-0.6c0-0.7,0.2-1.2,0.7-1.4
				c0.5-0.2,1-0.3,1.5-0.4c0.6-0.1,1.1-0.3,1.5-0.6c0.5-0.3,0.7-0.9,0.7-1.9v-4.4l0.4-3.9V31c0-0.1,0-0.4,0.1-0.8
				c0-0.4,0.1-0.8,0.2-1.3c0.1-0.5,0.2-1.1,0.3-1.7c0-0.3-0.1-0.5-0.2-0.8c-0.2-0.2-0.2-0.5-0.2-0.7v-0.6c0-1-0.1-1.6-0.4-2
				c-0.3-0.4-0.6-0.6-1-0.8c-0.4-0.2-0.7-0.4-1-0.7c-0.3-0.2-0.4-0.7-0.4-1.5c0-0.3,0.1-0.7,0.2-0.9c0.2-0.3,0.3-0.5,0.5-0.7
				c0.2-0.2,0.4-0.3,0.6-0.4c0.2-0.1,0.4-0.1,0.5-0.1H130.2z"/>
		</g>
		<g>
			<path d="M157.9,21.5c0.7,0,1.3,0.2,1.6,0.6c0.3,0.4,0.5,1,0.5,1.7c0,0.1-0.1,0.4-0.2,0.9c-0.1,0.5-0.2,1-0.4,1.6
				c-0.2,0.6-0.3,1.2-0.5,1.8c-0.2,0.6-0.3,1.1-0.4,1.4c0,0.3,0,0.6-0.1,0.9c0,0.3-0.2,0.7-0.4,1.2c-0.3,0.2-0.4,0.5-0.4,1
				c0,0.5,0,0.8,0,1l-0.2,2.8v2c0,0.1,0,0.3,0,0.5c0,0.3,0.1,0.5,0.1,0.8c0.1,0.3,0.1,0.5,0.3,0.7c0.1,0.2,0.3,0.3,0.6,0.3l0.7-1.2
				c0.2-0.2,0.5-0.4,0.7-0.7c0.3-0.3,0.6-0.5,0.8-0.8c0.3-0.3,0.6-0.6,0.9-0.9c0.2,0,0.4,0.1,0.5,0.3c0.1,0.2,0.2,0.4,0.2,0.6
				l-0.2,0.4c-0.1,0.3-0.3,0.5-0.4,0.6c-0.2,0.7-0.6,1.3-0.9,1.8c-0.4,0.5-0.8,1-1.3,1.5c-0.5,0.5-0.9,1-1.4,1.4
				c-0.5,0.5-0.9,1-1.3,1.7l-1.2,1.6c0,0.3-0.1,0.6-0.3,1c-0.2,0.3-0.4,0.6-0.7,0.8c-0.3,0.2-0.5,0.3-0.8,0.3
				c-0.3,0-0.5-0.2-0.7-0.6c-0.2-0.6-0.3-1.2-0.3-1.9c0-0.6,0.1-1.2,0.2-1.8c0.1-0.6,0.2-1.1,0.3-1.6c0.1-0.5,0.2-1,0.2-1.5v-1.9v-1
				c0-0.2-0.1-0.3-0.4-0.4c-0.1,0-0.3-0.1-0.4-0.1s-0.4,0.3-0.8,0.9c-0.4,0.6-0.9,1.3-1.4,2.1c-0.5,0.8-1.1,1.6-1.6,2.4
				c-0.6,0.8-1,1.4-1.4,1.7c-0.1,0.1-0.3,0.3-0.5,0.6c-0.2,0.3-0.5,0.5-0.7,0.8c-0.3,0.2-0.5,0.5-0.9,0.7c-0.3,0.2-0.6,0.3-0.8,0.3
				c-0.5,0-0.9-0.2-1.2-0.5c-0.3-0.3-0.6-0.8-0.7-1.2c-0.2-0.5-0.3-0.9-0.4-1.4c-0.1-0.5-0.1-0.8-0.1-1l-0.2-3.8l0.7-6.1
				c0-0.1,0.1-0.3,0.2-0.7c0.1-0.4,0.2-0.8,0.4-1.3c0.2-0.5,0.4-0.9,0.6-1.3c0.2-0.4,0.5-0.8,0.7-1.1c1-0.9,2-2.1,2.9-3.5
				c0.5-0.6,0.9-1.1,1.3-1.4c0.4-0.3,0.8-0.5,1.3-0.7c0.4-0.2,0.8-0.3,1.3-0.4c0.4-0.1,0.9-0.3,1.4-0.5c0.2,0,0.5-0.1,0.8-0.3
				c0.3-0.2,0.6-0.4,0.9-0.7h1.5h0.9L157.9,21.5z M151.2,27.3c-0.6,0.5-1.2,1.1-1.8,1.8c-0.6,0.7-1,1.4-1.5,2.1
				c-0.4,0.7-0.8,1.4-1,2c-0.2,0.6-0.4,1.1-0.4,1.4c0,0.2,0,0.5-0.1,1c0,0.5,0,1,0.1,1.5c0.1,0.5,0.2,1,0.4,1.4
				c0.2,0.4,0.5,0.6,1,0.6c0.5,0,1-0.4,1.6-1.2c0.6-0.8,1.2-1.7,1.7-2.7c0.5-1,1-2,1.4-2.8c0.4-0.9,0.5-1.4,0.5-1.6
				c0-0.1,0-0.5,0.1-1c0-0.5,0-1.1-0.1-1.6c-0.1-0.5-0.3-0.9-0.6-1.1C152.4,26.7,151.9,26.9,151.2,27.3z"/>
		</g>
		<g>
			<path d="M177.8,0c0.5,0,1,0.1,1.5,0.3c0.5,0.2,1,0.4,1.3,0.7c0.4,0.3,0.7,0.7,0.8,1.1c0.2,0.4,0.2,0.9,0.1,1.5c0,0.3,0,0.5,0,0.5
				c0,0.1-0.1,0.3-0.1,0.5c0,0.1-0.1,0.3-0.2,0.6c-0.1,0.3-0.2,0.6-0.4,1c-0.2,0.3-0.3,0.6-0.5,0.9c-0.2,0.3-0.3,0.4-0.4,0.4
				c-0.7,0.5-1.4,0.9-2.1,1.2c-0.8,0.3-1.5,0.6-2.1,0.9c-0.7,0.3-1.3,0.7-1.8,1.2c-0.5,0.5-0.9,1.1-1,1.9l-0.4,1
				c-0.6,1.2-1.1,2.5-1.4,3.7c-0.3,1.2-0.7,2.4-0.9,3.6v1c-0.3,0.7-0.5,1.3-0.7,1.9c-0.2,0.5-0.3,1-0.3,1.5c0,0.1,0,0.3,0,0.5
				c0,0.2,0.1,0.4,0.2,0.7c0.1,0.2,0.2,0.4,0.3,0.5c0.1,0.2,0.3,0.2,0.4,0.2c0.2,0,0.5-0.1,0.9-0.5c0.4-0.4,0.8-0.8,1.3-1.3
				c0.5-0.5,1-0.9,1.6-1.3c0.6-0.4,1.2-0.6,1.9-0.5c0.5,0,0.9,0.3,1.3,0.7c0.4,0.4,0.8,0.9,1.1,1.4c0.3,0.5,0.5,1,0.7,1.4
				c0.2,0.5,0.3,0.7,0.3,0.8c0,0.5-0.2,1.1-0.5,1.7c-0.3,0.6-0.7,1.2-1,1.8c-0.4,0.6-0.7,1.2-1,1.7c-0.3,0.5-0.5,1-0.5,1.3
				c0,0.4,0.1,1,0.2,1.7c0.2,0.7,0.4,1.4,0.7,2.1c0.3,0.7,0.7,1.3,1.2,1.8c0.5,0.5,1,0.8,1.6,0.8c0.2,0,0.4,0,0.5-0.2
				c0.2-0.2,0.3-0.3,0.4-0.6c0.1-0.2,0.3-0.5,0.4-0.8c0.1-0.3,0.3-0.5,0.5-0.7c0.4-0.2,0.7-0.5,0.9-0.9c0.2-0.4,0.6-0.6,0.9-0.6h0.5
				c0.1,0,0.2,0.1,0.3,0.3c0.1,0.2,0.1,0.4,0.1,0.6s0,0.4-0.1,0.6c0,0.2-0.1,0.3-0.1,0.4c0,0.2-0.1,0.5-0.4,1
				c-0.2,0.5-0.5,1.1-0.9,1.8c-0.4,0.7-0.8,1.4-1.2,2.1c-0.5,0.7-0.9,1.4-1.3,2c-0.4,0.6-0.8,1.1-1.2,1.5c-0.3,0.4-0.6,0.6-0.8,0.5
				c-0.8,0-1.4-0.2-1.9-0.7c-0.5-0.5-1-1-1.4-1.6c-0.4-0.6-0.7-1.3-1-2c-0.3-0.7-0.5-1.3-0.7-1.8c-0.1-0.3-0.3-0.8-0.5-1.4
				c-0.2-0.6-0.5-1.2-0.8-1.8c-0.3-0.6-0.7-1.1-1.1-1.5c-0.4-0.5-1-0.7-1.5-0.7c-0.2,0-0.5,0.1-0.6,0.4c-0.2,0.2-0.3,0.5-0.4,0.8
				c-0.1,0.3-0.2,0.6-0.2,0.9c-0.1,0.3-0.1,0.5-0.1,0.6v1.6c-0.1,0.9,0.2,1.6,0.7,1.9c0.5,0.3,1.1,0.6,1.8,0.8
				c0.6,0.2,1.1,0.4,1.6,0.8c0.5,0.4,0.7,1,0.6,2c0,0.2-0.1,0.5-0.2,0.7c-0.2,0.2-0.3,0.3-0.5,0.5c-0.2,0.1-0.4,0.2-0.7,0.3
				c-0.2,0.1-0.4,0.1-0.5,0.1c-0.3-0.1-0.7-0.2-1.3-0.4c-0.6-0.2-1-0.3-1.2-0.4h-1.5c-0.5,0-1-0.1-1.4-0.3c-0.2-0.1-0.4-0.2-0.6-0.3
				c-0.2,0-0.4,0.1-0.7,0.3c-0.3,0.2-0.5,0.3-0.7,0.3c-0.3,0-0.6-0.1-1-0.1c-0.4,0-0.8,0-1.1-0.1c-0.4-0.1-0.7-0.2-0.9-0.3
				c-0.2-0.2-0.3-0.4-0.3-0.8c0-0.6,0.2-1.1,0.6-1.4c0.4-0.4,0.9-0.8,1.4-1.2c0.5-0.4,1-1,1.4-1.7c0.4-0.7,0.6-1.6,0.7-2.8
				c0.1-0.5,0.1-0.9,0.1-1.3c0-0.3,0-0.7,0.1-1.3c0-0.3,0-0.5,0.1-0.8c0.1-0.2,0.2-0.5,0.5-0.7l0.2-5.5c0-0.7,0-1.2,0.1-1.5
				c0.1-0.3,0.1-0.6,0.1-0.8c0.2-0.5,0.4-0.9,0.4-1.2c0.1-0.3,0.1-0.7,0.1-1.3v-1.9c0.1-0.3,0.2-0.7,0.4-1.2c0.2-0.5,0.3-1,0.4-1.5
				l0.6-3.5c0.3-1.9,0.8-3.7,1.5-5.3c0.7-1.7,1.5-3.4,2.3-5.3c0.1-0.3,0.3-0.7,0.5-1.2c0.2-0.5,0.5-1,0.8-1.4
				c0.3-0.5,0.7-0.9,1.2-1.3c0.4-0.4,1-0.6,1.5-0.7c0.3,0,0.5-0.1,0.8-0.2c0.2-0.1,0.5-0.2,0.7-0.3c0.3-0.2,0.6-0.3,0.8-0.4
				C177.3,0.1,177.5,0,177.8,0z M172.4,28.8c-1-0.1-1.8,0.2-2.5,0.8c-0.6,0.6-1,1.4-1,2.4c0,0.2,0,0.4,0,0.6c0,0.2,0.1,0.5,0.1,0.7
				c0.1,0.2,0.2,0.4,0.4,0.5c0.2,0.1,0.4,0.2,0.8,0.2c0.3,0,0.7-0.1,1.1-0.3c0.4-0.3,0.8-0.6,1.1-1c0.3-0.4,0.6-0.8,0.8-1.3
				c0.2-0.5,0.3-0.8,0.3-1.2c0-0.4-0.1-0.7-0.4-1C172.8,28.9,172.6,28.8,172.4,28.8z"/>
		</g>
		<g>
			<path d="M195.9,22c0.7,0,1.4,0.1,1.9,0.4c0.5,0.3,0.9,0.6,1.2,1.1c0.3,0.5,0.5,1,0.7,1.6c0.1,0.6,0.2,1.2,0.2,1.9
				c0,0.9-0.3,1.7-1,2.3c-0.7,0.6-1.4,1.1-2.1,1.5c-0.7,0.5-1.4,0.9-2.1,1.2c-0.8,0.3-1.4,0.7-2.1,1.2c-0.6,0.4-1.2,0.9-1.6,1.5
				c-0.4,0.6-0.7,1.3-0.7,2.1v2.2c-0.1,0.6,0.1,1.2,0.4,1.8c0.3,0.6,0.7,0.9,1.2,0.9c0,0,0.2,0,0.4-0.2c0.2-0.1,0.5-0.3,0.8-0.5
				c0.3-0.2,0.6-0.4,0.9-0.6c0.3-0.2,0.5-0.4,0.7-0.5c0.5-0.2,0.9-0.4,1.2-0.6c0.3-0.2,0.5-0.2,0.7-0.1c0.2,0,0.5,0,0.6,0.1
				c0.2,0.1,0.3,0.3,0.3,0.8c-0.1,0.8-0.4,1.5-1,2.2c-0.6,0.7-1.2,1.4-1.9,2c-0.7,0.6-1.4,1.1-2,1.6c-0.7,0.5-1.1,0.8-1.3,1
				c-0.6,0.5-1.1,0.8-1.6,0.8c-0.5,0-1,0.1-1.5,0.1c-0.3,0-0.6-0.2-1-0.4c-0.3-0.2-0.6-0.5-0.9-0.9c-0.3-0.3-0.5-0.7-0.6-1
				c-0.1-0.3-0.2-0.6-0.2-0.9v-0.9c0-0.2-0.1-0.5-0.2-0.8c-0.1-0.1-0.1-0.3-0.2-0.4l0.2-1v-0.8c0-0.1,0-0.5,0.1-1.1
				c0.1-0.6,0.2-1.3,0.3-2c0.1-0.7,0.2-1.4,0.3-2c0.1-0.6,0.1-1.1,0.2-1.3c0.1-0.1,0.2-0.2,0.2-0.3c0-0.1,0-0.2-0.1-0.3
				c0-0.1-0.1-0.2-0.1-0.4c0-0.2,0.1-0.3,0.2-0.5c0-0.4,0.1-0.9,0.3-1.3c0.1-0.2,0.2-0.5,0.3-0.7l0.7-1.7c0.1-0.8,0.4-1.6,1.1-2.4
				c0.7-0.8,1.4-1.6,2.3-2.2c0.9-0.7,1.8-1.2,2.7-1.6C194.5,22.1,195.3,21.9,195.9,22z M193.6,25.9c-0.2,0-0.3,0.1-0.5,0.4
				c-0.2,0.3-0.3,0.5-0.5,0.9c-0.2,0.4-0.3,0.8-0.5,1.2c0,0.2-0.1,0.4-0.2,0.6c-0.1,0.2-0.1,0.4-0.2,0.6c0,0.2,0,0.3,0.1,0.5
				c0.1,0.1,0.2,0.2,0.4,0.2c0.2,0,0.4,0,0.8-0.1c0.3-0.1,0.7-0.3,1.1-0.5c0.4-0.2,0.7-0.5,1-0.8c0.3-0.3,0.5-0.6,0.5-1V27
				c0-0.2-0.1-0.3-0.2-0.5c-0.1-0.1-0.2-0.2-0.4-0.3c-0.1-0.1-0.3-0.2-0.5-0.3L193.6,25.9z"/>
		</g>
	</g>
	<g>
		<path d="M31.1,12.6V7.8l-1.9,3.6h-0.8l-1.9-3.6v4.8h-1.4V5.3h1.5l2.2,4.2L31,5.3h1.5v7.3H31.1z"/>
		<path d="M35.1,12.6L38,5.3h1.2l2.9,7.3h-1.5l-0.7-1.8h-2.6l-0.7,1.8H35.1z M38.6,6.8l-1,3h2.1L38.6,6.8z"/>
		<path d="M49.4,6.5h-2.3v6.1h-1.4V6.5h-2.3V5.3h6.1V6.5z"/>
		<path d="M57.7,6.5h-2.3v6.1h-1.4V6.5h-2.3V5.3h6.1V6.5z"/>
		<path d="M66.6,5.3v7.3h-1.4V9.5h-3.3v3.1h-1.4V5.3h1.4v3h3.3v-3H66.6z"/>
		<path d="M75.1,11.4v1.2H70V5.3h5v1.2h-3.6v1.8h3.1v1.2h-3.1v1.9H75.1z"/>
		<path d="M80.6,5.3h1.3l0.8,2.4l0.8-2.4h1.3l-1.2,3.3l0.9,2.3l2.1-5.7h1.5l-3,7.3H84l-1.3-3.1l-1.3,3.1h-1.2l-3-7.3h1.5l2.1,5.7
			l0.9-2.3L80.6,5.3z"/>
		<path d="M100.6,10.7c0,0.3-0.1,0.6-0.2,0.8c-0.1,0.2-0.3,0.4-0.5,0.6c-0.2,0.2-0.5,0.3-0.8,0.4s-0.6,0.1-0.9,0.1h-3.5V5.3h3.9
			c0.3,0,0.5,0.1,0.7,0.2s0.4,0.3,0.5,0.4c0.1,0.2,0.3,0.4,0.3,0.6c0.1,0.2,0.1,0.4,0.1,0.7c0,0.4-0.1,0.7-0.3,1
			c-0.2,0.3-0.4,0.5-0.8,0.7c0.4,0.1,0.8,0.3,1,0.7C100.5,9.8,100.6,10.2,100.6,10.7z M96.1,6.5v1.8H98c0.2,0,0.4-0.1,0.6-0.2
			c0.2-0.2,0.3-0.4,0.3-0.7c0-0.3-0.1-0.5-0.2-0.7c-0.2-0.2-0.3-0.2-0.6-0.2H96.1z M99.2,10.5c0-0.1,0-0.3-0.1-0.4
			c0-0.1-0.1-0.2-0.2-0.3c-0.1-0.1-0.2-0.2-0.3-0.2c-0.1-0.1-0.2-0.1-0.3-0.1h-2.2v1.9h2.1c0.1,0,0.3,0,0.4-0.1
			c0.1,0,0.2-0.1,0.3-0.2c0.1-0.1,0.1-0.2,0.2-0.3C99.1,10.7,99.2,10.6,99.2,10.5z"/>
		<path d="M106.6,12.7c-0.5,0-1-0.1-1.4-0.3c-0.4-0.2-0.8-0.5-1.1-0.8c-0.3-0.3-0.5-0.7-0.7-1.2c-0.2-0.4-0.2-0.9-0.2-1.4
			c0-0.5,0.1-1,0.3-1.4c0.2-0.4,0.4-0.8,0.7-1.2c0.3-0.3,0.7-0.6,1.1-0.8c0.4-0.2,0.9-0.3,1.4-0.3c0.5,0,1,0.1,1.4,0.3
			c0.4,0.2,0.8,0.5,1.1,0.8c0.3,0.4,0.5,0.7,0.7,1.2c0.2,0.4,0.2,0.9,0.2,1.4c0,0.5-0.1,1-0.3,1.4c-0.2,0.4-0.4,0.8-0.7,1.2
			c-0.3,0.3-0.7,0.6-1.1,0.8C107.6,12.6,107.1,12.7,106.6,12.7z M104.6,9c0,0.3,0,0.6,0.1,0.9c0.1,0.3,0.2,0.6,0.4,0.8
			c0.2,0.2,0.4,0.4,0.6,0.5c0.3,0.1,0.5,0.2,0.9,0.2c0.3,0,0.6-0.1,0.9-0.2s0.5-0.3,0.6-0.6c0.2-0.2,0.3-0.5,0.4-0.8
			c0.1-0.3,0.1-0.6,0.1-0.9c0-0.3,0-0.6-0.1-0.9c-0.1-0.3-0.2-0.6-0.4-0.8c-0.2-0.2-0.4-0.4-0.6-0.5c-0.3-0.1-0.5-0.2-0.8-0.2
			c-0.3,0-0.6,0.1-0.9,0.2c-0.3,0.1-0.5,0.3-0.6,0.6c-0.2,0.2-0.3,0.5-0.4,0.8C104.6,8.4,104.6,8.7,104.6,9z"/>
		<path d="M116.1,11.4c0.3,0,0.6-0.1,0.8-0.2c0.2-0.1,0.4-0.3,0.6-0.5s0.2-0.5,0.3-0.8c0.1-0.3,0.1-0.6,0.1-0.9V5.3h1.4V9
			c0,0.5-0.1,1-0.2,1.4c-0.1,0.4-0.3,0.8-0.6,1.2c-0.3,0.3-0.6,0.6-1,0.8c-0.4,0.2-0.9,0.3-1.5,0.3c-0.6,0-1.1-0.1-1.5-0.3
			c-0.4-0.2-0.7-0.5-1-0.8s-0.4-0.7-0.6-1.2c-0.1-0.4-0.2-0.9-0.2-1.4V5.3h1.4V9c0,0.3,0,0.6,0.1,0.9c0.1,0.3,0.2,0.5,0.3,0.8
			c0.1,0.2,0.3,0.4,0.6,0.5C115.5,11.3,115.8,11.4,116.1,11.4z"/>
		<path d="M122.6,12.6V5.3h3.2c0.3,0,0.6,0.1,0.9,0.2c0.3,0.1,0.5,0.3,0.7,0.6c0.2,0.2,0.4,0.5,0.5,0.8c0.1,0.3,0.2,0.6,0.2,0.9
			c0,0.5-0.1,0.9-0.4,1.3c-0.2,0.4-0.6,0.7-1,0.8l1.7,2.7h-1.6l-1.5-2.5H124v2.5H122.6z M124,8.9h1.8c0.1,0,0.3,0,0.4-0.1
			c0.1-0.1,0.2-0.1,0.3-0.3c0.1-0.1,0.1-0.2,0.2-0.4c0-0.1,0.1-0.3,0.1-0.5c0-0.2,0-0.3-0.1-0.5c-0.1-0.1-0.1-0.3-0.2-0.4
			s-0.2-0.2-0.3-0.2c-0.1-0.1-0.2-0.1-0.4-0.1H124V8.9z"/>
		<path d="M132.8,7.9v4.7h-1.4V5.3h1.1l3.8,4.8V5.3h1.4v7.3h-1.2L132.8,7.9z"/>
		<path d="M146.1,11.4v1.2h-5.1V5.3h5v1.2h-3.6v1.8h3.1v1.2h-3.1v1.9H146.1z"/>
		<path d="M148.8,5.1c0.2,0,0.3,0,0.5,0c0.2,0,0.3,0.1,0.5,0.2c0.1,0.1,0.3,0.2,0.4,0.3c0.1,0.1,0.1,0.3,0.1,0.5v1.4h-1.1V6.4
			c0-0.1-0.1-0.2-0.1-0.3c-0.1,0-0.2-0.1-0.2-0.1V5.1z"/>
		<path d="M157.9,7.2c0,0-0.1-0.1-0.3-0.2c-0.1-0.1-0.3-0.2-0.5-0.2c-0.2-0.1-0.4-0.1-0.6-0.2c-0.2-0.1-0.4-0.1-0.6-0.1
			c-0.4,0-0.7,0.1-0.9,0.2c-0.2,0.1-0.3,0.3-0.3,0.6c0,0.2,0,0.3,0.1,0.4c0.1,0.1,0.2,0.2,0.3,0.3c0.1,0.1,0.3,0.1,0.5,0.2
			c0.2,0.1,0.5,0.1,0.7,0.2c0.4,0.1,0.7,0.2,1,0.3c0.3,0.1,0.5,0.2,0.7,0.4c0.2,0.2,0.4,0.4,0.5,0.6c0.1,0.2,0.2,0.5,0.2,0.8
			c0,0.4-0.1,0.7-0.2,1c-0.1,0.3-0.3,0.5-0.6,0.7c-0.2,0.2-0.5,0.3-0.9,0.4c-0.3,0.1-0.7,0.1-1,0.1c-0.5,0-1.1-0.1-1.6-0.2
			c-0.5-0.2-1-0.4-1.4-0.7l0.6-1.2c0.1,0.1,0.2,0.1,0.3,0.2c0.2,0.1,0.4,0.2,0.6,0.3s0.5,0.2,0.7,0.3c0.3,0.1,0.5,0.1,0.8,0.1
			c0.8,0,1.2-0.3,1.2-0.8c0-0.2,0-0.3-0.1-0.4c-0.1-0.1-0.2-0.2-0.4-0.3c-0.2-0.1-0.4-0.2-0.6-0.2c-0.2-0.1-0.5-0.1-0.8-0.2
			c-0.4-0.1-0.7-0.2-0.9-0.3S154,9,153.8,8.8c-0.2-0.2-0.3-0.3-0.4-0.5c-0.1-0.2-0.1-0.4-0.1-0.7c0-0.4,0.1-0.7,0.2-1
			c0.1-0.3,0.3-0.5,0.6-0.7c0.2-0.2,0.5-0.3,0.8-0.4c0.3-0.1,0.7-0.1,1-0.1c0.5,0,1,0.1,1.4,0.2c0.4,0.2,0.8,0.4,1.1,0.6L157.9,7.2z
			"/>
	</g>
</g>
</svg>
